<svg width="62" height="62" viewBox="0 0 62 62" fill="none" xmlns="http://www.w3.org/2000/svg">
<circle cx="31" cy="31" r="31" fill="#FDFDFD"/>
<circle cx="31" cy="31" r="31" fill="#CF3A34"/>
<path d="M27.25 33.8126C27.2477 31.9313 27.7307 30.0812 28.6523 28.4412C29.5739 26.8011 30.9029 25.4265 32.511 24.4501C34.119 23.4737 35.9517 22.9286 37.832 22.8675C39.7123 22.8063 41.5765 23.2312 43.2446 24.101C44.9127 24.9709 46.3283 26.2563 47.3545 27.833C48.3807 29.4097 48.9828 31.2245 49.1028 33.1019C49.2227 34.9794 48.8563 36.856 48.0391 38.5505C47.2219 40.245 45.9814 41.7001 44.4375 42.7751V44.1251H40.0625V36.8876C40.0625 36.7218 39.9967 36.5628 39.8795 36.4456C39.7622 36.3284 39.6033 36.2626 39.4375 36.2626C39.2717 36.2626 39.1128 36.3284 38.9956 36.4456C38.8784 36.5628 38.8125 36.7218 38.8125 36.8876V44.1251H37.5625V36.8876C37.5625 36.7218 37.4967 36.5628 37.3795 36.4456C37.2622 36.3284 37.1033 36.2626 36.9375 36.2626C36.7717 36.2626 36.6128 36.3284 36.4956 36.4456C36.3784 36.5628 36.3125 36.7218 36.3125 36.8876V44.1251H31.9375V42.7751C30.4917 41.7696 29.3103 40.4295 28.4941 38.8689C27.6779 37.3084 27.2511 35.5737 27.25 33.8126ZM31.9375 45.3751V46.6251H44.4375V45.3751H31.9375ZM32 47.8751C32.1441 48.5809 32.5276 49.2153 33.0857 49.6709C33.6438 50.1265 34.3421 50.3752 35.0625 50.3751H41.3125C42.0329 50.3752 42.7313 50.1265 43.2893 49.6709C43.8474 49.2153 44.2309 48.5809 44.375 47.8751H32Z" fill="#FFE3E1"/>
<path d="M42.25 15.375H40.0625V13.5C40.0625 13.0027 39.865 12.5258 39.5133 12.1742C39.1617 11.8225 38.6848 11.625 38.1875 11.625H18.5C18.0027 11.625 17.5258 11.8225 17.1742 12.1742C16.8225 12.5258 16.625 13.0027 16.625 13.5V30.375H14.75C14.2527 30.375 13.7758 30.5725 13.4242 30.9242C13.0725 31.2758 12.875 31.7527 12.875 32.25V37.25C12.875 37.7473 13.0725 38.2242 13.4242 38.5758C13.7758 38.9275 14.2527 39.125 14.75 39.125H16.625V41C16.625 41.4973 16.8225 41.9742 17.1742 42.3258C17.5258 42.6775 18.0027 42.875 18.5 42.875H38.1875C38.6848 42.875 39.1617 42.6775 39.5133 42.3258C39.865 41.9742 40.0625 41.4973 40.0625 41V27.875H42.25C42.7473 27.875 43.2242 27.6775 43.5758 27.3258C43.9275 26.9742 44.125 26.4973 44.125 26V17.25C44.125 16.7527 43.9275 16.2758 43.5758 15.9242C43.2242 15.5725 42.7473 15.375 42.25 15.375ZM14.125 37.25V32.25C14.125 32.0842 14.1908 31.9253 14.3081 31.8081C14.4253 31.6908 14.5842 31.625 14.75 31.625H23.5C23.6658 31.625 23.8247 31.6908 23.9419 31.8081C24.0592 31.9253 24.125 32.0842 24.125 32.25V37.25C24.125 37.4158 24.0592 37.5747 23.9419 37.6919C23.8247 37.8092 23.6658 37.875 23.5 37.875H14.75C14.5842 37.875 14.4253 37.8092 14.3081 37.6919C14.1908 37.5747 14.125 37.4158 14.125 37.25ZM38.8125 41C38.8125 41.1658 38.7467 41.3247 38.6294 41.4419C38.5122 41.5592 38.3533 41.625 38.1875 41.625H18.5C18.3342 41.625 18.1753 41.5592 18.0581 41.4419C17.9408 41.3247 17.875 41.1658 17.875 41V39.125H23.5C23.9973 39.125 24.4742 38.9275 24.8258 38.5758C25.1775 38.2242 25.375 37.7473 25.375 37.25V32.25C25.375 31.7527 25.1775 31.2758 24.8258 30.9242C24.4742 30.5725 23.9973 30.375 23.5 30.375H17.875V13.5C17.875 13.3342 17.9408 13.1753 18.0581 13.0581C18.1753 12.9408 18.3342 12.875 18.5 12.875H38.1875C38.3533 12.875 38.5122 12.9408 38.6294 13.0581C38.7467 13.1753 38.8125 13.3342 38.8125 13.5V15.375H32.25C31.7527 15.375 31.2758 15.5725 30.9242 15.9242C30.5725 16.2758 30.375 16.7527 30.375 17.25V26C30.375 26.4973 30.5725 26.9742 30.9242 27.3258C31.2758 27.6775 31.7527 27.875 32.25 27.875H38.8125V41ZM42.875 26C42.875 26.1658 42.8092 26.3247 42.6919 26.4419C42.5747 26.5592 42.4158 26.625 42.25 26.625H32.25C32.0842 26.625 31.9253 26.5592 31.8081 26.4419C31.6908 26.3247 31.625 26.1658 31.625 26V17.25C31.625 17.0842 31.6908 16.9253 31.8081 16.8081C31.9253 16.6908 32.0842 16.625 32.25 16.625H42.25C42.4158 16.625 42.5747 16.6908 42.6919 16.8081C42.8092 16.9253 42.875 17.0842 42.875 17.25V26ZM20.375 17.875C20.375 17.7092 20.4408 17.5503 20.5581 17.4331C20.6753 17.3158 20.8342 17.25 21 17.25H27.875C28.0408 17.25 28.1997 17.3158 28.3169 17.4331C28.4342 17.5503 28.5 17.7092 28.5 17.875C28.5 18.0408 28.4342 18.1997 28.3169 18.3169C28.1997 18.4342 28.0408 18.5 27.875 18.5H21C20.8342 18.5 20.6753 18.4342 20.5581 18.3169C20.4408 18.1997 20.375 18.0408 20.375 17.875ZM20.375 20.375C20.375 20.2092 20.4408 20.0503 20.5581 19.9331C20.6753 19.8158 20.8342 19.75 21 19.75H27.875C28.0408 19.75 28.1997 19.8158 28.3169 19.9331C28.4342 20.0503 28.5 20.2092 28.5 20.375C28.5 20.5408 28.4342 20.6997 28.3169 20.8169C28.1997 20.9342 28.0408 21 27.875 21H21C20.8342 21 20.6753 20.9342 20.5581 20.8169C20.4408 20.6997 20.375 20.5408 20.375 20.375ZM20.375 22.875C20.375 22.7092 20.4408 22.5503 20.5581 22.4331C20.6753 22.3158 20.8342 22.25 21 22.25H27.875C28.0408 22.25 28.1997 22.3158 28.3169 22.4331C28.4342 22.5503 28.5 22.7092 28.5 22.875C28.5 23.0408 28.4342 23.1997 28.3169 23.3169C28.1997 23.4342 28.0408 23.5 27.875 23.5H21C20.8342 23.5 20.6753 23.4342 20.5581 23.3169C20.4408 23.1997 20.375 23.0408 20.375 22.875ZM27.875 26H21C20.8342 26 20.6753 25.9342 20.5581 25.8169C20.4408 25.6997 20.375 25.5408 20.375 25.375C20.375 25.2092 20.4408 25.0503 20.5581 24.9331C20.6753 24.8158 20.8342 24.75 21 24.75H27.875C28.0408 24.75 28.1997 24.8158 28.3169 24.9331C28.4342 25.0503 28.5 25.2092 28.5 25.375C28.5 25.5408 28.4342 25.6997 28.3169 25.8169C28.1997 25.9342 28.0408 26 27.875 26ZM40.375 20.375C40.375 20.5408 40.3092 20.6997 40.1919 20.8169C40.0747 20.9342 39.9158 21 39.75 21H34.75C34.5842 21 34.4253 20.9342 34.3081 20.8169C34.1908 20.6997 34.125 20.5408 34.125 20.375C34.125 20.2092 34.1908 20.0503 34.3081 19.9331C34.4253 19.8158 34.5842 19.75 34.75 19.75H39.75C39.9158 19.75 40.0747 19.8158 40.1919 19.9331C40.3092 20.0503 40.375 20.2092 40.375 20.375ZM38.5 22.875C38.5 23.0408 38.4342 23.1997 38.3169 23.3169C38.1997 23.4342 38.0408 23.5 37.875 23.5H34.75C34.5842 23.5 34.4253 23.4342 34.3081 23.3169C34.1908 23.1997 34.125 23.0408 34.125 22.875C34.125 22.7092 34.1908 22.5503 34.3081 22.4331C34.4253 22.3158 34.5842 22.25 34.75 22.25H37.875C38.0408 22.25 38.1997 22.3158 38.3169 22.4331C38.4342 22.5503 38.5 22.7092 38.5 22.875ZM16 33.5C16 33.3342 16.0658 33.1753 16.1831 33.0581C16.3003 32.9408 16.4592 32.875 16.625 32.875H21.625C21.7908 32.875 21.9497 32.9408 22.0669 33.0581C22.1842 33.1753 22.25 33.3342 22.25 33.5C22.25 33.6658 22.1842 33.8247 22.0669 33.9419C21.9497 34.0592 21.7908 34.125 21.625 34.125H16.625C16.4592 34.125 16.3003 34.0592 16.1831 33.9419C16.0658 33.8247 16 33.6658 16 33.5ZM19.125 36.625H16.625C16.4592 36.625 16.3003 36.5592 16.1831 36.4419C16.0658 36.3247 16 36.1658 16 36C16 35.8342 16.0658 35.6753 16.1831 35.5581C16.3003 35.4408 16.4592 35.375 16.625 35.375H19.125C19.2908 35.375 19.4497 35.4408 19.5669 35.5581C19.6842 35.6753 19.75 35.8342 19.75 36C19.75 36.1658 19.6842 36.3247 19.5669 36.4419C19.4497 36.5592 19.2908 36.625 19.125 36.625Z" fill="#CF3A34"/>
<path d="M35.6875 30.375H27.875C27.7092 30.375 27.5503 30.4408 27.4331 30.5581C27.3158 30.6753 27.25 30.8342 27.25 31V38.5C27.25 38.6658 27.3158 38.8247 27.4331 38.9419C27.5503 39.0592 27.7092 39.125 27.875 39.125H35.6875C35.8533 39.125 36.0122 39.0592 36.1294 38.9419C36.2467 38.8247 36.3125 38.6658 36.3125 38.5V31C36.3125 30.8342 36.2467 30.6753 36.1294 30.5581C36.0122 30.4408 35.8533 30.375 35.6875 30.375ZM30.8812 34.75L28.5 37.05V32.45L30.8812 34.75ZM29.4438 31.625H34.125L31.7875 33.8813L29.4438 31.625ZM31.7812 35.6187L34.125 37.875H29.4438L31.7812 35.6187ZM32.6812 34.75L35.0625 32.45V37.05L32.6812 34.75Z" fill="#CF3A34"/>
<path d="M27.25 33.8126C27.2477 31.9313 27.7307 30.0812 28.6523 28.4412C29.5739 26.8011 30.9029 25.4265 32.511 24.4501C34.119 23.4737 35.9517 22.9286 37.832 22.8675C39.7123 22.8063 41.5765 23.2312 43.2446 24.101C44.9127 24.9709 46.3283 26.2563 47.3545 27.833C48.3807 29.4097 48.9828 31.2245 49.1028 33.1019C49.2227 34.9794 48.8563 36.856 48.0391 38.5505C47.2219 40.245 45.9814 41.7001 44.4375 42.7751V44.1251H40.0625V36.8876C40.0625 36.7218 39.9967 36.5628 39.8795 36.4456C39.7622 36.3284 39.6033 36.2626 39.4375 36.2626C39.2717 36.2626 39.1128 36.3284 38.9956 36.4456C38.8784 36.5628 38.8125 36.7218 38.8125 36.8876V44.1251H37.5625V36.8876C37.5625 36.7218 37.4967 36.5628 37.3795 36.4456C37.2622 36.3284 37.1033 36.2626 36.9375 36.2626C36.7717 36.2626 36.6128 36.3284 36.4956 36.4456C36.3784 36.5628 36.3125 36.7218 36.3125 36.8876V44.1251H31.9375V42.7751C30.4917 41.7696 29.3103 40.4295 28.4941 38.8689C27.6779 37.3084 27.2511 35.5737 27.25 33.8126ZM31.9375 45.3751V46.6251H44.4375V45.3751H31.9375ZM32 47.8751C32.1441 48.5809 32.5276 49.2153 33.0857 49.6709C33.6438 50.1265 34.3421 50.3752 35.0625 50.3751H41.3125C42.0329 50.3752 42.7313 50.1265 43.2893 49.6709C43.8474 49.2153 44.2309 48.5809 44.375 47.8751H32Z" fill="#E1ABA7"/>
<path d="M42.25 15.375H40.0625V13.5C40.0625 13.0027 39.865 12.5258 39.5133 12.1742C39.1617 11.8225 38.6848 11.625 38.1875 11.625H18.5C18.0027 11.625 17.5258 11.8225 17.1742 12.1742C16.8225 12.5258 16.625 13.0027 16.625 13.5V30.375H14.75C14.2527 30.375 13.7758 30.5725 13.4242 30.9242C13.0725 31.2758 12.875 31.7527 12.875 32.25V37.25C12.875 37.7473 13.0725 38.2242 13.4242 38.5758C13.7758 38.9275 14.2527 39.125 14.75 39.125H16.625V41C16.625 41.4973 16.8225 41.9742 17.1742 42.3258C17.5258 42.6775 18.0027 42.875 18.5 42.875H38.1875C38.6848 42.875 39.1617 42.6775 39.5133 42.3258C39.865 41.9742 40.0625 41.4973 40.0625 41V27.875H42.25C42.7473 27.875 43.2242 27.6775 43.5758 27.3258C43.9275 26.9742 44.125 26.4973 44.125 26V17.25C44.125 16.7527 43.9275 16.2758 43.5758 15.9242C43.2242 15.5725 42.7473 15.375 42.25 15.375ZM14.125 37.25V32.25C14.125 32.0842 14.1908 31.9253 14.3081 31.8081C14.4253 31.6908 14.5842 31.625 14.75 31.625H23.5C23.6658 31.625 23.8247 31.6908 23.9419 31.8081C24.0592 31.9253 24.125 32.0842 24.125 32.25V37.25C24.125 37.4158 24.0592 37.5747 23.9419 37.6919C23.8247 37.8092 23.6658 37.875 23.5 37.875H14.75C14.5842 37.875 14.4253 37.8092 14.3081 37.6919C14.1908 37.5747 14.125 37.4158 14.125 37.25ZM38.8125 41C38.8125 41.1658 38.7467 41.3247 38.6294 41.4419C38.5122 41.5592 38.3533 41.625 38.1875 41.625H18.5C18.3342 41.625 18.1753 41.5592 18.0581 41.4419C17.9408 41.3247 17.875 41.1658 17.875 41V39.125H23.5C23.9973 39.125 24.4742 38.9275 24.8258 38.5758C25.1775 38.2242 25.375 37.7473 25.375 37.25V32.25C25.375 31.7527 25.1775 31.2758 24.8258 30.9242C24.4742 30.5725 23.9973 30.375 23.5 30.375H17.875V13.5C17.875 13.3342 17.9408 13.1753 18.0581 13.0581C18.1753 12.9408 18.3342 12.875 18.5 12.875H38.1875C38.3533 12.875 38.5122 12.9408 38.6294 13.0581C38.7467 13.1753 38.8125 13.3342 38.8125 13.5V15.375H32.25C31.7527 15.375 31.2758 15.5725 30.9242 15.9242C30.5725 16.2758 30.375 16.7527 30.375 17.25V26C30.375 26.4973 30.5725 26.9742 30.9242 27.3258C31.2758 27.6775 31.7527 27.875 32.25 27.875H38.8125V41ZM42.875 26C42.875 26.1658 42.8092 26.3247 42.6919 26.4419C42.5747 26.5592 42.4158 26.625 42.25 26.625H32.25C32.0842 26.625 31.9253 26.5592 31.8081 26.4419C31.6908 26.3247 31.625 26.1658 31.625 26V17.25C31.625 17.0842 31.6908 16.9253 31.8081 16.8081C31.9253 16.6908 32.0842 16.625 32.25 16.625H42.25C42.4158 16.625 42.5747 16.6908 42.6919 16.8081C42.8092 16.9253 42.875 17.0842 42.875 17.25V26ZM20.375 17.875C20.375 17.7092 20.4408 17.5503 20.5581 17.4331C20.6753 17.3158 20.8342 17.25 21 17.25H27.875C28.0408 17.25 28.1997 17.3158 28.3169 17.4331C28.4342 17.5503 28.5 17.7092 28.5 17.875C28.5 18.0408 28.4342 18.1997 28.3169 18.3169C28.1997 18.4342 28.0408 18.5 27.875 18.5H21C20.8342 18.5 20.6753 18.4342 20.5581 18.3169C20.4408 18.1997 20.375 18.0408 20.375 17.875ZM20.375 20.375C20.375 20.2092 20.4408 20.0503 20.5581 19.9331C20.6753 19.8158 20.8342 19.75 21 19.75H27.875C28.0408 19.75 28.1997 19.8158 28.3169 19.9331C28.4342 20.0503 28.5 20.2092 28.5 20.375C28.5 20.5408 28.4342 20.6997 28.3169 20.8169C28.1997 20.9342 28.0408 21 27.875 21H21C20.8342 21 20.6753 20.9342 20.5581 20.8169C20.4408 20.6997 20.375 20.5408 20.375 20.375ZM20.375 22.875C20.375 22.7092 20.4408 22.5503 20.5581 22.4331C20.6753 22.3158 20.8342 22.25 21 22.25H27.875C28.0408 22.25 28.1997 22.3158 28.3169 22.4331C28.4342 22.5503 28.5 22.7092 28.5 22.875C28.5 23.0408 28.4342 23.1997 28.3169 23.3169C28.1997 23.4342 28.0408 23.5 27.875 23.5H21C20.8342 23.5 20.6753 23.4342 20.5581 23.3169C20.4408 23.1997 20.375 23.0408 20.375 22.875ZM27.875 26H21C20.8342 26 20.6753 25.9342 20.5581 25.8169C20.4408 25.6997 20.375 25.5408 20.375 25.375C20.375 25.2092 20.4408 25.0503 20.5581 24.9331C20.6753 24.8158 20.8342 24.75 21 24.75H27.875C28.0408 24.75 28.1997 24.8158 28.3169 24.9331C28.4342 25.0503 28.5 25.2092 28.5 25.375C28.5 25.5408 28.4342 25.6997 28.3169 25.8169C28.1997 25.9342 28.0408 26 27.875 26ZM40.375 20.375C40.375 20.5408 40.3092 20.6997 40.1919 20.8169C40.0747 20.9342 39.9158 21 39.75 21H34.75C34.5842 21 34.4253 20.9342 34.3081 20.8169C34.1908 20.6997 34.125 20.5408 34.125 20.375C34.125 20.2092 34.1908 20.0503 34.3081 19.9331C34.4253 19.8158 34.5842 19.75 34.75 19.75H39.75C39.9158 19.75 40.0747 19.8158 40.1919 19.9331C40.3092 20.0503 40.375 20.2092 40.375 20.375ZM38.5 22.875C38.5 23.0408 38.4342 23.1997 38.3169 23.3169C38.1997 23.4342 38.0408 23.5 37.875 23.5H34.75C34.5842 23.5 34.4253 23.4342 34.3081 23.3169C34.1908 23.1997 34.125 23.0408 34.125 22.875C34.125 22.7092 34.1908 22.5503 34.3081 22.4331C34.4253 22.3158 34.5842 22.25 34.75 22.25H37.875C38.0408 22.25 38.1997 22.3158 38.3169 22.4331C38.4342 22.5503 38.5 22.7092 38.5 22.875ZM16 33.5C16 33.3342 16.0658 33.1753 16.1831 33.0581C16.3003 32.9408 16.4592 32.875 16.625 32.875H21.625C21.7908 32.875 21.9497 32.9408 22.0669 33.0581C22.1842 33.1753 22.25 33.3342 22.25 33.5C22.25 33.6658 22.1842 33.8247 22.0669 33.9419C21.9497 34.0592 21.7908 34.125 21.625 34.125H16.625C16.4592 34.125 16.3003 34.0592 16.1831 33.9419C16.0658 33.8247 16 33.6658 16 33.5ZM19.125 36.625H16.625C16.4592 36.625 16.3003 36.5592 16.1831 36.4419C16.0658 36.3247 16 36.1658 16 36C16 35.8342 16.0658 35.6753 16.1831 35.5581C16.3003 35.4408 16.4592 35.375 16.625 35.375H19.125C19.2908 35.375 19.4497 35.4408 19.5669 35.5581C19.6842 35.6753 19.75 35.8342 19.75 36C19.75 36.1658 19.6842 36.3247 19.5669 36.4419C19.4497 36.5592 19.2908 36.625 19.125 36.625Z" fill="#FFEBEB"/>
<path d="M35.6875 30.375H27.875C27.7092 30.375 27.5503 30.4408 27.4331 30.5581C27.3158 30.6753 27.25 30.8342 27.25 31V38.5C27.25 38.6658 27.3158 38.8247 27.4331 38.9419C27.5503 39.0592 27.7092 39.125 27.875 39.125H35.6875C35.8533 39.125 36.0122 39.0592 36.1294 38.9419C36.2467 38.8247 36.3125 38.6658 36.3125 38.5V31C36.3125 30.8342 36.2467 30.6753 36.1294 30.5581C36.0122 30.4408 35.8533 30.375 35.6875 30.375ZM30.8812 34.75L28.5 37.05V32.45L30.8812 34.75ZM29.4438 31.625H34.125L31.7875 33.8813L29.4438 31.625ZM31.7812 35.6187L34.125 37.875H29.4438L31.7812 35.6187ZM32.6812 34.75L35.0625 32.45V37.05L32.6812 34.75Z" fill="#FFEBEB"/>
</svg>
