<svg width="15" height="12" viewBox="0 0 15 12" fill="none" xmlns="http://www.w3.org/2000/svg">
<path d="M5.448 8.576C5.448 9.152 5.416 9.616 5.352 9.968C5.288 10.288 5.08 10.608 4.728 10.928C4.376 11.216 3.864 11.36 3.192 11.36C2.2 11.36 1.56 11.12 1.272 10.64C0.984 10.128 0.84 9.44 0.84 8.576C0.84 7.68 1 6.784 1.32 5.888C1.672 4.992 2.072 4.24 2.52 3.632C3 2.992 3.464 2.416 3.912 1.904C4.392 1.392 4.808 1.008 5.16 0.751999L5.64 0.415998L6.792 1.712C6.152 2.256 5.672 2.8 5.352 3.344C5.064 3.856 4.92 4.576 4.92 5.504C4.92 5.792 5 6.272 5.16 6.944C5.352 7.616 5.448 8.16 5.448 8.576ZM12.984 8.576C12.984 9.152 12.952 9.616 12.888 9.968C12.824 10.288 12.616 10.608 12.264 10.928C11.912 11.216 11.4 11.36 10.728 11.36C9.736 11.36 9.096 11.12 8.808 10.64C8.52 10.128 8.376 9.44 8.376 8.576C8.376 7.68 8.536 6.784 8.856 5.888C9.208 4.992 9.608 4.24 10.056 3.632C10.536 2.992 11 2.416 11.448 1.904C11.928 1.392 12.328 1.008 12.648 0.751999L13.176 0.415998L14.28 1.712C13.864 2.096 13.544 2.416 13.32 2.672C13.128 2.928 12.936 3.312 12.744 3.824C12.552 4.304 12.456 4.864 12.456 5.504C12.456 5.792 12.536 6.272 12.696 6.944C12.888 7.616 12.984 8.16 12.984 8.576Z" fill="#E7332B" fill-opacity="0.48"/>
</svg>
