<svg width="15" height="12" viewBox="0 0 15 12" fill="none" xmlns="http://www.w3.org/2000/svg">
<path d="M9.672 3.2C9.672 2.624 9.704 2.176 9.768 1.856C9.832 1.504 10.04 1.184 10.392 0.895997C10.744 0.575997 11.256 0.415998 11.928 0.415998C12.92 0.415998 13.56 0.671998 13.848 1.184C14.136 1.664 14.28 2.336 14.28 3.2C14.28 4.096 14.104 4.992 13.752 5.888C13.432 6.784 13.032 7.552 12.552 8.192C12.104 8.8 11.64 9.36 11.16 9.872C10.712 10.384 10.312 10.768 9.96 11.024L9.48 11.36L8.328 10.064C8.968 9.52 9.432 8.992 9.72 8.48C10.04 7.936 10.2 7.2 10.2 6.272C10.2 5.984 10.104 5.504 9.912 4.832C9.752 4.16 9.672 3.616 9.672 3.2ZM2.136 3.2C2.136 2.624 2.168 2.176 2.232 1.856C2.296 1.504 2.504 1.184 2.856 0.895997C3.208 0.575997 3.72 0.415998 4.392 0.415998C5.384 0.415998 6.024 0.671998 6.312 1.184C6.6 1.664 6.744 2.336 6.744 3.2C6.744 4.096 6.568 4.992 6.216 5.888C5.896 6.784 5.496 7.552 5.016 8.192C4.568 8.8 4.104 9.36 3.624 9.872C3.176 10.384 2.792 10.768 2.472 11.024L1.944 11.36L0.84 10.064C1.256 9.68 1.56 9.36 1.752 9.104C1.976 8.848 2.184 8.48 2.376 8C2.568 7.488 2.664 6.912 2.664 6.272C2.664 5.984 2.568 5.504 2.376 4.832C2.216 4.16 2.136 3.616 2.136 3.2Z" fill="#E7332B" fill-opacity="0.48"/>
</svg>
